<?xml version="1.0" standalone="no"?>
<!DOCTYPE svg PUBLIC "-//W3C//DTD SVG 20010904//EN"
 "http://www.w3.org/TR/2001/REC-SVG-20010904/DTD/svg10.dtd">
<svg version="1.0" xmlns="http://www.w3.org/2000/svg"
 width="674.000000pt" height="364.000000pt" viewBox="0 0 674.000000 364.000000"
 preserveAspectRatio="xMidYMid meet">

<g transform="translate(0.000000,364.000000) scale(0.100000,-0.100000)"
fill="#fc3a9a" stroke="none">
<path d="M1230 1790 l0 -1020 140 0 140 0 0 369 c0 203 3 376 6 385 5 14 36
16 238 16 l231 0 78 78 77 77 0 480 0 480 -82 77 -83 78 -372 0 -373 0 0
-1020z m628 768 c9 -9 12 -108 12 -384 0 -325 -2 -375 -16 -388 -13 -13 -42
-16 -160 -16 -81 0 -154 5 -165 10 -18 10 -19 25 -19 394 0 210 3 386 7 389
12 13 328 8 341 -5z"/>
<path d="M2500 1790 l0 -1020 135 0 135 0 0 1020 0 1020 -135 0 -135 0 0
-1020z"/>
<path d="M3130 1790 l0 -1020 125 0 125 0 0 595 c0 526 2 595 15 595 18 0 25
-16 55 -120 12 -41 25 -86 30 -100 4 -14 13 -45 20 -70 7 -25 16 -56 20 -70
11 -32 47 -154 60 -200 13 -46 49 -168 60 -200 4 -14 13 -45 20 -70 7 -25 16
-56 20 -70 13 -38 49 -160 61 -205 25 -92 11 -85 169 -85 l140 0 0 1020 0
1020 -125 0 -125 0 0 -595 c0 -359 -4 -595 -9 -595 -16 0 -41 31 -41 50 0 11
-4 29 -9 42 -5 13 -19 57 -31 98 -12 41 -25 86 -30 100 -4 14 -13 45 -20 70
-7 25 -16 56 -20 70 -12 36 -48 158 -61 205 -6 22 -15 51 -19 65 -12 36 -48
158 -61 205 -6 22 -15 51 -19 65 -5 14 -18 59 -30 100 -39 133 -19 120 -180
120 l-140 0 0 -1020z"/>
<path d="M4410 1790 l0 -1020 140 0 140 0 0 253 c0 199 3 260 14 283 8 16 37
78 65 137 29 60 56 107 62 105 15 -5 33 -40 68 -135 58 -155 93 -248 101 -268
4 -11 22 -58 40 -105 18 -47 36 -94 40 -105 5 -11 21 -53 36 -92 l27 -73 149
0 c81 0 148 2 148 5 0 4 -39 109 -60 160 -4 11 -27 70 -50 130 -23 61 -46 119
-50 130 -4 11 -27 70 -50 130 -23 61 -46 119 -50 130 -4 11 -27 70 -50 130
-23 61 -46 119 -50 130 -86 210 -85 204 -41 298 36 77 63 134 161 342 187 398
210 447 210 451 0 2 -65 4 -145 4 l-146 0 -28 -62 c-16 -35 -38 -84 -50 -110
-49 -112 -65 -146 -88 -198 -14 -30 -33 -73 -43 -95 -10 -22 -29 -65 -43 -95
-13 -30 -35 -77 -47 -105 -12 -27 -32 -72 -45 -100 -12 -27 -30 -69 -40 -92
-42 -97 -45 -70 -45 423 l0 434 -140 0 -140 0 0 -1020z"/>
</g>
</svg>
